<?xml version="1.0" standalone="no"?>
<!DOCTYPE svg PUBLIC "-//W3C//DTD SVG 20010904//EN"
 "http://www.w3.org/TR/2001/REC-SVG-20010904/DTD/svg10.dtd">
<svg version="1.0" xmlns="http://www.w3.org/2000/svg"
 width="1024.000000pt" height="1024.000000pt" viewBox="0 0 1024.000000 1024.000000"
 preserveAspectRatio="xMidYMid meet">

<g transform="translate(0.000000,1024.000000) scale(0.100000,-0.100000)"
fill="#000000" stroke="none">
<path d="M3944 7514 c-18 -14 -18 -15 4 -4 12 6 22 13 22 15 0 8 -5 6 -26 -11z"/>
<path d="M3855 7465 c-184 -111 -359 -311 -458 -524 -22 -47 -55 -147 -75
-221 l-35 -135 -7 -320 c-3 -176 -7 -761 -8 -1299 -2 -539 -5 -982 -7 -985 -3
-2 -6 540 -7 1205 -2 665 -4 1121 -5 1014 -2 -117 -8 -199 -14 -205 -7 -7 -8
-4 -3 9 5 13 4 17 -4 12 -7 -4 -12 -18 -12 -32 0 -14 -7 -38 -15 -55 -9 -16
-13 -34 -10 -39 3 -5 0 -12 -6 -15 -5 -4 -8 -13 -5 -21 3 -8 1 -14 -4 -14 -5
0 -7 -13 -3 -30 4 -23 2 -30 -10 -30 -14 0 -37 -65 -37 -104 0 -8 -5 -27 -12
-43 -6 -15 -12 -32 -13 -38 -1 -5 -3 -12 -4 -15 -9 -16 -8 -100 1 -100 5 0 2
-7 -7 -16 -9 -9 -15 -26 -15 -38 3 -29 -10 -67 -20 -61 -5 3 -11 1 -14 -4 -3
-5 0 -11 8 -14 18 -7 9 -57 -10 -57 -17 0 -18 -16 -3 -26 8 -5 8 -9 -1 -14 -9
-6 -8 -16 5 -41 14 -26 15 -37 6 -51 -6 -10 -9 -22 -7 -27 3 -4 -3 -32 -14
-62 -22 -60 -24 -71 -10 -49 8 13 10 13 10 -2 0 -9 -8 -22 -17 -27 -17 -10
-16 -10 2 -11 18 -1 19 -1 3 -11 -19 -11 -24 -44 -9 -53 8 -5 5 -96 -4 -124
-4 -10 1 -11 18 -7 21 7 21 6 3 -7 -10 -8 -16 -20 -12 -26 4 -7 2 -12 -5 -12
-7 0 -5 -6 6 -13 16 -12 16 -18 7 -47 -14 -40 -15 -60 -2 -40 13 20 14 -29 1
-64 -6 -13 -6 -37 -2 -53 4 -15 4 -41 -1 -58 -11 -39 -15 -125 -5 -125 12 0 8
-38 -5 -42 -8 -3 -7 -13 5 -37 13 -27 14 -33 2 -37 -10 -4 -12 -18 -8 -56 4
-37 2 -52 -8 -59 -9 -5 -10 -9 -2 -9 7 0 11 -21 11 -62 0 -35 1 -76 2 -93 1
-26 3 -27 10 -10 8 19 9 19 9 -2 1 -13 -4 -23 -10 -23 -6 0 -9 -6 -6 -12 2 -7
-2 -21 -11 -30 -8 -10 -10 -18 -5 -18 6 0 13 -9 16 -19 3 -13 0 -18 -8 -15
-14 6 -15 -42 -2 -63 5 -7 5 -18 1 -25 -11 -17 -13 -97 -4 -103 5 -3 5 -19 0
-35 -5 -18 -5 -32 1 -36 5 -3 -1 -14 -13 -25 l-23 -20 25 5 c14 3 19 3 13 0
-16 -7 -17 -40 -2 -50 6 -3 8 -17 4 -31 -3 -14 -2 -22 2 -20 4 3 9 -6 10 -20
1 -19 -1 -22 -8 -12 -6 10 -9 7 -9 -13 0 -15 5 -30 12 -34 7 -5 8 -2 3 7 -5 8
-4 11 0 7 5 -5 9 -20 11 -35 1 -16 0 -22 -3 -15 -3 6 -9 10 -14 6 -5 -3 -2
-18 6 -34 17 -32 20 -55 4 -27 -5 9 -15 17 -22 17 -9 0 -9 -2 0 -8 8 -5 14
-37 15 -84 2 -42 6 -71 10 -64 12 17 9 -3 -2 -25 -8 -14 -7 -19 1 -19 7 0 9
-11 5 -32 -3 -20 0 -44 8 -60 8 -15 12 -36 9 -48 -3 -11 -1 -20 3 -20 5 0 9
-21 10 -46 1 -25 6 -49 13 -53 6 -4 9 -15 6 -24 -4 -10 1 -19 13 -26 14 -7 18
-17 15 -31 -3 -11 0 -26 6 -33 6 -8 8 -17 4 -20 -3 -4 -2 -7 4 -7 6 0 9 -9 6
-20 -3 -10 2 -26 11 -35 8 -9 13 -22 10 -30 -4 -9 0 -15 9 -15 8 0 20 -13 27
-30 7 -16 18 -30 24 -30 6 0 18 -10 26 -22 8 -12 25 -32 38 -45 12 -13 22 -31
22 -39 0 -8 4 -13 8 -10 5 3 15 -3 23 -12 44 -54 44 -53 28 -64 -11 -8 -10 -8
6 -3 13 4 25 -1 37 -17 10 -13 18 -17 18 -10 0 21 28 13 49 -14 12 -15 25 -23
32 -18 9 5 10 2 6 -9 -3 -9 -1 -19 5 -23 7 -4 8 -3 4 4 -4 7 -2 12 3 12 6 0
11 -6 11 -13 0 -8 25 -18 60 -26 33 -8 63 -18 66 -22 3 -5 9 -7 14 -4 4 3 10
-2 14 -10 3 -8 16 -15 28 -15 19 0 20 -2 8 -10 -12 -8 -10 -10 8 -10 13 0 21
-4 17 -9 -3 -5 0 -13 6 -17 7 -4 9 -3 5 4 -13 22 18 25 36 2 15 -18 24 -21 53
-16 22 4 35 3 35 -4 0 -5 9 -10 19 -10 11 0 23 -4 26 -10 3 -5 14 -10 24 -10
10 0 24 -6 30 -14 7 -8 21 -12 31 -9 11 3 31 -2 44 -11 23 -14 26 -14 40 0 9
9 16 11 16 4 0 -6 4 -8 10 -5 6 3 10 1 10 -4 0 -6 14 -11 31 -11 21 0 28 -4
23 -12 -6 -9 -3 -9 9 1 11 9 26 11 44 5 38 -10 73 -12 73 -2 0 4 4 8 10 8 5 0
6 -8 3 -18 -6 -15 -5 -15 10 -3 15 12 22 12 42 1 14 -7 28 -11 31 -7 4 3 15 2
25 -3 11 -6 20 -6 23 -1 4 5 0 12 -6 14 -8 4 -7 6 3 6 9 1 19 -6 22 -14 5 -11
25 -14 91 -12 47 1 86 5 86 10 0 4 9 7 20 7 11 0 20 -5 20 -11 0 -8 5 -8 15 1
9 8 15 8 15 2 0 -21 41 -24 61 -6 14 12 19 14 17 5 -4 -16 49 -22 73 -8 9 6
25 7 35 2 11 -4 25 -7 31 -6 7 1 22 -3 34 -9 15 -8 24 -8 34 0 8 6 23 9 35 5
12 -4 20 -2 20 5 0 6 5 8 13 3 6 -4 31 -8 55 -9 24 -1 50 -8 59 -16 9 -7 14
-8 10 -2 -9 16 15 24 69 24 25 0 54 5 64 10 14 8 21 6 28 -6 6 -11 11 -13 16
-5 4 6 2 11 -4 11 -6 0 -8 5 -4 11 4 8 9 8 17 0 6 -6 18 -11 26 -11 14 0 14 1
1 10 -11 7 5 10 51 10 47 0 70 4 79 15 7 8 18 15 24 14 7 0 6 -2 -1 -6 -26
-10 -12 -19 22 -15 20 2 32 8 29 14 -5 7 -1 7 11 0 15 -8 22 -5 36 12 11 12
18 16 19 8 0 -17 58 -10 91 11 14 9 37 18 51 19 15 1 25 5 22 9 -2 4 0 10 6
14 5 3 10 1 10 -5 0 -6 4 -9 10 -5 5 3 7 12 3 20 -3 10 1 15 14 15 10 0 23 4
29 9 5 5 20 11 34 13 14 2 30 14 37 28 7 14 13 19 13 13 0 -23 18 -14 24 13 4
16 12 24 20 21 7 -3 30 12 51 34 20 21 41 37 45 34 5 -3 6 4 3 15 -4 14 0 20
11 20 9 0 16 4 16 8 0 4 14 16 31 26 24 14 28 21 18 27 -10 6 -7 9 11 9 20 0
22 2 10 10 -14 9 -13 11 9 14 15 2 78 80 74 91 -2 6 10 19 27 28 16 10 35 27
40 38 6 10 15 19 21 19 13 0 39 25 39 37 0 5 9 15 19 23 11 7 18 17 15 22 -3
4 3 11 13 15 25 9 64 53 58 64 -4 5 -3 9 2 9 12 0 84 142 87 172 1 5 19 29 41
54 65 76 63 83 -6 20 -144 -131 -316 -222 -510 -270 -59 -14 -113 -26 -120
-25 -8 0 36 14 98 29 124 31 233 75 351 141 93 52 276 230 306 297 10 23 22
42 26 42 4 0 27 25 51 56 41 53 44 55 49 33 5 -16 8 -5 12 36 4 35 19 87 36
125 17 36 43 117 58 180 l28 115 1 450 c1 303 -1 378 -5 230 -3 -121 -7 -203
-8 -182 -2 30 -6 37 -22 37 -11 0 -20 -4 -20 -9 0 -5 -16 -12 -35 -15 -19 -4
-35 -11 -35 -16 0 -6 -9 -10 -19 -10 -29 0 -51 -11 -51 -25 0 -19 -230 -21
-242 -3 -6 10 -10 10 -17 -2 -8 -12 -13 -11 -29 8 -13 15 -31 22 -55 22 -19 0
-38 6 -40 13 -4 10 -6 10 -6 0 -1 -14 -27 -18 -33 -5 -1 4 -59 4 -128 0 -83
-6 -126 -5 -128 2 -2 5 -19 10 -38 10 -37 0 -43 10 -19 30 9 7 25 27 37 44 12
17 -5 2 -38 -33 -32 -36 -58 -69 -56 -74 1 -5 -2 -6 -7 -3 -5 4 -25 -6 -43
-22 -98 -84 -242 -157 -448 -226 -306 -102 -519 -102 -819 -1 -239 80 -425
215 -578 420 -132 176 -229 441 -252 687 -27 288 -7 513 64 726 41 120 127
293 185 370 40 53 48 68 30 57 -16 -10 -11 1 7 16 11 10 14 10 9 2 -14 -24 -1
-12 89 79 79 81 82 86 27 39 -34 -29 -71 -64 -81 -77 -31 -40 -51 -31 -51 22
0 36 -12 69 -55 153 -30 59 -55 114 -55 122 0 9 -7 24 -15 35 -8 10 -15 30
-15 42 0 15 -7 26 -20 29 -13 4 -20 14 -20 30 0 27 -35 93 -57 106 -7 4 -13
24 -13 42 0 19 -4 35 -10 35 -5 0 -10 8 -10 18 0 10 -4 22 -9 28 -11 11 -32
95 -36 144 -2 19 -4 38 -4 41 -1 3 -12 11 -25 17 -17 8 -27 22 -32 48 -4 24
-13 38 -25 41 -11 3 -19 12 -19 19 0 8 -5 14 -11 14 -8 0 -10 14 -6 40 3 22 1
40 -4 40 -5 0 -9 -7 -9 -15 0 -8 -8 -15 -18 -15 -10 0 -23 -5 -30 -12 -8 -8
-12 -8 -12 -1 0 13 62 64 155 127 39 26 72 50 74 52 12 12 -11 0 -64 -31z
m-675 -1699 c0 -3 -4 -8 -10 -11 -5 -3 -10 -1 -10 4 0 6 5 11 10 11 6 0 10 -2
10 -4z m-146 -1222 c3 -8 2 -12 -4 -9 -6 3 -10 10 -10 16 0 14 7 11 14 -7z
m269 -884 c57 -242 189 -494 329 -627 60 -58 231 -181 295 -214 35 -18 61 -34
59 -36 -16 -16 -270 152 -364 241 -49 46 -153 190 -201 277 -78 143 -140 361
-146 509 l-4 95 9 -90 c4 -49 15 -119 23 -155z m-273 200 c0 -5 -4 -10 -10
-10 -5 0 -10 5 -10 10 0 6 5 10 10 10 6 0 10 -4 10 -10z m1082 -1114 c46 -14
99 -30 118 -35 33 -10 33 -10 -10 -5 -52 7 -188 49 -210 65 -13 9 -12 10 2 5
10 -3 55 -17 100 -30z m191 -53 c-7 -2 -19 -2 -25 0 -7 3 -2 5 12 5 14 0 19
-2 13 -5z m1677 -4 c-71 -14 -973 -21 -1315 -11 -275 9 -243 9 280 6 325 -3
682 -1 795 4 113 5 223 9 245 9 l40 0 -45 -8z m-1723 -691 c-3 -8 -6 -5 -6 6
-1 11 2 17 5 13 3 -3 4 -12 1 -19z"/>
<path d="M3922 6980 c0 -14 2 -19 5 -12 2 6 2 18 0 25 -3 6 -5 1 -5 -13z"/>
<path d="M6381 6829 c-11 -12 -23 -35 -27 -52 -5 -26 -1 -35 29 -64 20 -18 40
-33 44 -33 5 0 19 14 31 30 15 19 31 30 47 30 31 0 31 8 0 51 -47 64 -88 76
-124 38z"/>
<path d="M5135 6746 c-11 -8 -18 -28 -19 -52 l-1 -39 40 3 c109 7 108 6 75 52
-25 36 -72 53 -95 36z"/>
<path d="M3262 6500 c0 -14 2 -19 5 -12 2 6 2 18 0 25 -3 6 -5 1 -5 -13z"/>
<path d="M5004 5872 c-102 -36 -196 -114 -277 -231 -43 -63 -67 -157 -67 -264
0 -147 48 -256 164 -373 55 -55 84 -76 131 -93 169 -63 358 -54 469 23 75 52
141 115 161 156 10 19 28 47 41 61 17 18 29 49 40 108 8 45 13 87 10 94 -2 7
-5 4 -5 -6 -1 -30 -32 -87 -52 -97 -14 -8 -28 -4 -61 19 -24 15 -80 53 -126
84 -74 49 -158 120 -187 159 -35 45 -99 158 -143 251 -51 107 -51 108 -29 117
43 17 -15 11 -69 -8z"/>
<path d="M6017 5411 c-37 -38 -25 -75 30 -90 58 -16 73 -14 84 16 31 83 -51
138 -114 74z"/>
<path d="M6393 5398 c-23 -27 -19 -52 10 -62 37 -14 54 4 41 41 -10 31 -35 41
-51 21z"/>
<path d="M4023 5300 c-3 -11 -18 -22 -34 -25 -50 -11 -59 -28 -53 -103 14
-194 28 -291 51 -352 14 -36 31 -87 39 -115 33 -117 111 -252 196 -339 26 -27
48 -54 48 -60 0 -32 178 -171 310 -243 111 -60 383 -145 410 -128 6 3 10 2 10
-3 0 -6 46 -13 103 -17 85 -6 123 -3 222 15 66 13 129 29 140 36 11 8 14 14 7
14 -8 0 -12 21 -12 70 0 56 -4 76 -24 104 -39 58 -82 89 -114 82 -15 -3 -21
-3 -14 0 6 3 12 14 12 25 0 10 -6 20 -12 20 -7 1 -20 3 -28 4 -8 1 -21 3 -27
4 -7 0 -13 8 -13 16 0 10 -10 15 -34 15 -28 0 -35 4 -39 23 -2 12 -5 1 -6 -25
0 -28 -6 -48 -12 -48 -7 0 -10 15 -7 43 3 23 3 34 1 25 -3 -10 -13 -18 -24
-18 -10 0 -19 -4 -19 -10 0 -5 5 -10 10 -10 6 0 10 -7 10 -15 0 -8 -4 -15 -10
-15 -5 0 -10 4 -10 8 0 5 -11 14 -23 21 -17 9 -23 19 -19 36 3 20 -1 24 -36
30 -27 4 -42 12 -45 25 -3 11 -21 29 -42 41 -22 14 -34 27 -31 36 3 8 -2 17
-14 21 -21 8 -152 135 -220 213 -25 28 -58 64 -74 78 -74 67 -156 157 -156
170 0 5 -14 24 -30 43 -59 65 -70 79 -70 89 0 6 -11 22 -24 37 -82 90 -107
122 -102 131 4 5 -3 12 -14 16 -11 3 -20 12 -20 20 0 18 -26 27 -94 30 -50 3
-59 1 -63 -15z m1414 -1202 c-3 -8 -6 -5 -6 6 -1 11 2 17 5 13 3 -3 4 -12 1
-19z"/>
<path d="M3020 5120 c0 -5 5 -10 11 -10 5 0 7 5 4 10 -3 6 -8 10 -11 10 -2 0
-4 -4 -4 -10z"/>
<path d="M5200 4350 c0 -5 9 -10 20 -10 11 0 20 5 20 10 0 6 -9 10 -20 10 -11
0 -20 -4 -20 -10z"/>
<path d="M3417 2256 c-4 -10 0 -12 14 -9 22 6 26 23 5 23 -8 0 -16 -6 -19 -14z"/>
<path d="M4650 1961 c0 -6 4 -13 10 -16 6 -3 7 1 4 9 -7 18 -14 21 -14 7z"/>
</g>
</svg>
